<?xml version="1.0" standalone="no"?>
<!DOCTYPE svg PUBLIC "-//W3C//DTD SVG 20010904//EN"
 "http://www.w3.org/TR/2001/REC-SVG-20010904/DTD/svg10.dtd">
<svg version="1.0" xmlns="http://www.w3.org/2000/svg"
 width="500.000000pt" height="500.000000pt" viewBox="0 0 500.000000 500.000000"
 preserveAspectRatio="xMidYMid meet">
<metadata>
Created by potrace 1.16, written by Peter Selinger 2001-2019
</metadata>
<g transform="translate(0.000000,500.000000) scale(0.100000,-0.100000)"
fill="#ffff" stroke="none">
<path d="M2040 4221 c0 -5 106 -212 236 -461 129 -249 234 -453 232 -455 -2
-2 -208 104 -458 235 l-455 237 -3 -580 c-1 -319 -1 -582 1 -584 2 -2 207 103
456 233 249 130 454 234 456 232 2 -2 -102 -207 -232 -456 -129 -249 -233
-455 -231 -458 3 -2 265 -3 584 -2 l579 3 -236 455 c-131 250 -236 457 -234
459 2 2 208 -103 456 -233 249 -129 454 -234 456 -232 2 1 2 264 1 582 l-3
580 -455 -237 c-250 -131 -456 -236 -458 -235 -1 2 103 207 233 455 129 249
235 457 235 462 0 5 -236 9 -580 9 -324 0 -580 -4 -580 -9z"/>
<path d="M1015 2855 c-42 -20 -59 -35 -84 -75 -21 -35 -21 -42 -21 -576 0
-592 -1 -584 61 -706 16 -32 60 -90 97 -130 37 -40 186 -198 331 -352 145
-153 270 -294 277 -312 8 -20 14 -69 14 -124 l0 -90 320 0 320 0 0 203 c0 213
-7 263 -50 347 -32 63 -821 856 -868 871 -100 33 -198 -59 -178 -165 6 -29 38
-70 154 -194 80 -86 174 -187 208 -223 68 -73 108 -149 119 -222 l7 -47 -61 0
c-60 0 -61 1 -61 27 0 54 -44 114 -241 329 -128 140 -209 237 -225 269 -50
104 -18 223 77 292 l49 35 0 356 c0 325 -2 361 -19 397 -22 48 -44 69 -94 90
-45 19 -92 19 -132 0z"/>
<path d="M4060 2859 c-32 -13 -78 -56 -96 -91 -11 -22 -14 -98 -14 -398 0
-239 4 -370 10 -370 21 0 94 -77 113 -120 26 -59 26 -143 -1 -196 -11 -21
-109 -137 -218 -258 -213 -234 -239 -268 -249 -328 l-7 -38 -55 0 -56 0 5 49
c9 91 45 144 249 361 105 113 200 219 210 235 24 38 25 107 2 146 -19 32 -85
69 -122 69 -13 0 -38 -7 -55 -15 -18 -9 -211 -194 -428 -413 -498 -501 -478
-466 -478 -824 l0 -178 319 0 319 0 4 97 c3 66 10 108 21 128 9 17 163 185
342 375 292 309 330 353 366 424 l39 78 0 593 0 592 -22 28 c-42 53 -136 79
-198 54z"/>
<path d="M3647 2202 l-37 -37 -50 28 c-28 16 -50 26 -50 23 0 -2 9 -26 21 -53
l20 -48 -43 -38 -43 -38 58 7 57 6 22 -52 c23 -56 31 -53 43 18 6 39 9 42 38
43 18 1 43 4 57 8 24 7 24 8 -17 29 -23 12 -44 26 -48 31 -3 5 -1 31 5 57 6
26 9 48 7 50 -1 2 -20 -13 -40 -34z m17 -40 c-6 -36 -3 -40 27 -60 l34 -21
-41 -7 c-39 -6 -42 -9 -51 -48 l-9 -41 -17 39 c-16 37 -18 38 -63 34 l-46 -3
31 27 c35 32 37 38 16 78 -18 35 -11 37 29 11 l30 -20 29 25 c15 13 30 24 33
24 2 0 1 -17 -2 -38z"/>
<path d="M1634 2193 c3 -23 9 -48 12 -57 4 -10 -9 -23 -48 -42 l-53 -28 53 -7
c29 -4 56 -9 59 -12 2 -3 10 -29 16 -58 l12 -52 25 52 24 53 56 -7 55 -7 -40
41 -39 41 22 45 c12 25 22 48 22 51 0 3 -23 -7 -50 -22 l-51 -27 -41 39 -41
39 7 -42z m77 -43 c6 0 23 7 39 15 34 18 36 15 14 -27 -15 -30 -15 -31 15 -62
l30 -31 -43 3 c-42 4 -44 3 -59 -35 -16 -39 -23 -35 -29 17 -2 20 -11 27 -48
36 l-45 11 38 18 c40 20 42 24 28 73 l-10 33 30 -26 c17 -14 35 -25 40 -25z"/>
<path d="M3399 1984 l-37 -36 -44 26 c-25 14 -48 26 -52 26 -3 0 3 -18 14 -40
28 -54 26 -63 -22 -104 l-43 -36 61 6 60 6 24 -53 24 -54 10 52 c6 28 14 55
18 58 4 4 31 10 60 14 l53 6 -51 29 -52 28 13 54 c7 30 10 54 6 54 -3 0 -23
-16 -42 -36z m20 -38 c-6 -21 -9 -39 -7 -40 2 -1 19 -12 38 -24 l35 -22 -28 0
c-39 0 -67 -17 -67 -40 0 -47 -13 -51 -30 -11 -18 39 -19 39 -62 34 l-43 -5
34 29 34 29 -17 33 c-21 40 -15 49 19 27 29 -19 54 -15 80 14 24 26 27 22 14
-24z"/>
<path d="M1871 1972 c16 -68 12 -76 -38 -102 l-48 -24 57 -10 c56 -9 58 -10
64 -45 12 -75 18 -78 42 -23 l23 52 57 -6 57 -7 -42 37 -42 36 25 56 24 55
-50 -27 -49 -27 -45 36 -44 37 9 -38z m113 -32 c41 25 42 24 19 -25 l-17 -35
35 -30 34 -29 -45 5 c-45 6 -46 5 -64 -32 l-19 -39 -9 41 c-8 39 -11 42 -51
48 l-42 7 37 21 c39 23 39 23 21 93 -4 16 2 13 29 -13 l35 -33 37 21z"/>
<path d="M3155 1765 l-40 -34 -49 30 c-27 17 -46 25 -44 17 3 -7 13 -32 23
-54 l16 -42 -42 -39 -42 -39 58 6 58 6 22 -50 c24 -53 27 -52 42 19 l9 40 59
5 60 5 -50 29 c-27 16 -51 30 -53 31 -2 2 2 24 9 49 6 26 10 48 8 50 -2 2 -22
-11 -44 -29z m20 -38 c-6 -42 -6 -43 32 -62 l38 -19 -45 -6 c-43 -5 -44 -6
-55 -49 l-11 -44 -16 42 -17 43 -43 -7 -43 -7 32 33 31 34 -20 39 -20 38 41
-23 42 -23 27 27 c14 15 28 27 30 27 2 0 0 -19 -3 -43z"/>
<path d="M2104 1775 c4 -10 9 -37 12 -60 6 -39 5 -41 -40 -65 -51 -27 -44 -38
26 -39 35 -1 37 -3 43 -38 13 -76 19 -79 44 -25 26 55 22 54 111 36 23 -5 21
-2 -17 38 l-41 43 23 45 c13 25 24 49 25 53 0 4 -20 -4 -43 -18 -24 -14 -50
-25 -57 -25 -8 0 -32 17 -54 38 -26 25 -37 31 -32 17z m120 -57 c42 25 42 24
19 -24 l-18 -36 34 -30 34 -31 -44 7 -45 7 -21 -43 c-19 -37 -22 -40 -23 -18
-1 58 -10 70 -51 70 -48 0 -50 11 -4 33 37 18 37 18 18 92 -4 16 2 13 30 -14
l36 -34 35 21z"/>
<path d="M2912 1548 l-33 -33 -50 27 c-49 26 -50 26 -43 5 4 -12 13 -35 22
-52 15 -29 14 -30 -29 -69 l-44 -39 58 7 58 6 21 -51 c23 -55 31 -52 43 19 7
42 7 42 48 42 66 0 72 13 21 40 -48 27 -48 26 -28 104 8 35 -5 33 -44 -6z m19
-42 c-9 -36 -9 -37 32 -59 l42 -22 -47 -3 -47 -3 -7 -47 -7 -47 -20 44 -19 43
-46 -6 -47 -6 33 28 c36 30 38 41 17 82 -18 36 -17 36 28 10 l35 -21 28 25
c16 13 30 23 32 21 2 -2 -1 -19 -7 -39z"/>
<path d="M2344 1543 c3 -10 8 -35 12 -55 6 -36 5 -38 -39 -59 -52 -25 -52 -39
-2 -39 53 0 64 -8 71 -56 3 -24 10 -46 14 -49 5 -3 16 16 26 41 l18 46 60 -5
61 -6 -43 38 -42 39 20 47 c11 26 20 49 20 52 0 2 -21 -7 -47 -21 l-47 -27
-36 36 c-40 39 -54 44 -46 18z m117 -46 c21 12 39 20 39 18 0 -3 -8 -20 -17
-40 -17 -35 -17 -35 13 -66 l29 -32 -41 6 c-41 5 -42 4 -60 -36 l-18 -40 -11
44 c-11 43 -12 44 -55 49 l-45 5 42 23 c40 21 41 23 32 54 -14 51 -11 54 22
22 l30 -29 40 22z"/>
</g>
</svg>
